<svg width="280" height="280" viewBox="0 0 280 280" fill="none" xmlns="http://www.w3.org/2000/svg">
<mask id="mask0_198_305" style="mask-type:alpha" maskUnits="userSpaceOnUse" x="0" y="0" width="280" height="280">
<path d="M0 0H280V280H0V0Z" fill="#022922"/>
</mask>
<g mask="url(#mask0_198_305)">
<path d="M0 0H280V280H0V0Z" fill="#0F453C"/>
<path fill-rule="evenodd" clip-rule="evenodd" d="M140 280C140 202.68 77.3199 140 0 140V150C71.797 150 130 208.203 130 280H140Z" fill="#DAEF3D"/>
<path fill-rule="evenodd" clip-rule="evenodd" d="M280 140C202.68 140 140 202.68 140 280H150C150 208.203 208.203 150 280 150V140Z" fill="#DAEF3D"/>
<path fill-rule="evenodd" clip-rule="evenodd" d="M80 280C80 235.817 44.1828 200 0 200V280H80ZM280 280H200C200 235.817 235.817 200 280 200V280Z" fill="#DAEF3D"/>
<path d="M139.5 33C148.692 67.1402 175.36 93.8078 209.5 103C175.36 112.192 148.692 138.86 139.5 173C130.308 138.86 103.64 112.192 69.5 103C103.64 93.8078 130.308 67.1402 139.5 33Z" fill="#DAEF3D"/>
</g>
</svg>
